<svg xmlns="http://www.w3.org/2000/svg" width="740" height="370">
	<style>
 
    .grid {
        stroke: gray;
        stroke-width: 0.5;
    }

    .grid .minor {
        stroke-width: 0.2;
    }

    .labels {
		font-family: sans-serif;
        text-anchor: end;
    }

    .notes {
        fill: blue;
    }

	</style>
	<g class="labels">
		<text x="18" y="360" font-size="10">
 B1
		</text>
		<text x="18" y="350" font-size="10">
 C1
		</text>
		<text x="18" y="330" font-size="10">
 D2
		</text>
		<text x="18" y="310" font-size="10">
 E2
		</text>
		<text x="18" y="300" font-size="10">
 F2
		</text>
		<text x="18" y="280" font-size="10">
 G2
		</text>
		<text x="18" y="260" font-size="10">
 A2
		</text>
		<text x="18" y="240" font-size="10">
 B2
		</text>
		<text x="18" y="230" font-size="10">
 C2
		</text>
		<text x="18" y="210" font-size="10">
 D3
		</text>
		<text x="18" y="190" font-size="10">
 E3
		</text>
		<text x="18" y="180" font-size="10">
 F3
		</text>
		<text x="18" y="160" font-size="10">
 G3
		</text>
		<text x="18" y="140" font-size="10">
 A3
		</text>
		<text x="18" y="120" font-size="10">
 B3
		</text>
		<text x="18" y="110" font-size="10">
 C4
		</text>
		<text x="18" y="90" font-size="10">
 D4
		</text>
		<text x="18" y="70" font-size="10">
 E4
		</text>
		<text x="18" y="60" font-size="10">
 F4
		</text>
		<text x="18" y="40" font-size="10">
 G4
		</text>
		<text x="18" y="20" font-size="10">
 A4
		</text>
	</g>
	<g class="grid">
		<line x1="20" x2="20" y1="0" y2="370" class="major"/>
		<line x1="40" x2="40" y1="0" y2="370" class="minor"/>
		<line x1="60" x2="60" y1="0" y2="370" class="minor"/>
		<line x1="80" x2="80" y1="0" y2="370" class="minor"/>
		<line x1="100" x2="100" y1="0" y2="370" class="major"/>
		<line x1="120" x2="120" y1="0" y2="370" class="minor"/>
		<line x1="140" x2="140" y1="0" y2="370" class="minor"/>
		<line x1="160" x2="160" y1="0" y2="370" class="minor"/>
		<line x1="180" x2="180" y1="0" y2="370" class="major"/>
		<line x1="200" x2="200" y1="0" y2="370" class="minor"/>
		<line x1="220" x2="220" y1="0" y2="370" class="minor"/>
		<line x1="240" x2="240" y1="0" y2="370" class="minor"/>
		<line x1="260" x2="260" y1="0" y2="370" class="major"/>
		<line x1="280" x2="280" y1="0" y2="370" class="minor"/>
		<line x1="300" x2="300" y1="0" y2="370" class="minor"/>
		<line x1="320" x2="320" y1="0" y2="370" class="minor"/>
		<line x1="340" x2="340" y1="0" y2="370" class="major"/>
		<line x1="360" x2="360" y1="0" y2="370" class="minor"/>
		<line x1="380" x2="380" y1="0" y2="370" class="minor"/>
		<line x1="400" x2="400" y1="0" y2="370" class="minor"/>
		<line x1="420" x2="420" y1="0" y2="370" class="major"/>
		<line x1="440" x2="440" y1="0" y2="370" class="minor"/>
		<line x1="460" x2="460" y1="0" y2="370" class="minor"/>
		<line x1="480" x2="480" y1="0" y2="370" class="minor"/>
		<line x1="500" x2="500" y1="0" y2="370" class="major"/>
		<line x1="520" x2="520" y1="0" y2="370" class="minor"/>
		<line x1="540" x2="540" y1="0" y2="370" class="minor"/>
		<line x1="560" x2="560" y1="0" y2="370" class="minor"/>
		<line x1="580" x2="580" y1="0" y2="370" class="major"/>
		<line x1="600" x2="600" y1="0" y2="370" class="minor"/>
		<line x1="620" x2="620" y1="0" y2="370" class="minor"/>
		<line x1="640" x2="640" y1="0" y2="370" class="minor"/>
		<line x1="660" x2="660" y1="0" y2="370" class="major"/>
		<line x1="680" x2="680" y1="0" y2="370" class="minor"/>
		<line x1="700" x2="700" y1="0" y2="370" class="minor"/>
		<line x1="720" x2="720" y1="0" y2="370" class="minor"/>
		<line x1="740" x2="740" y1="0" y2="370" class="major"/>
		<line x1="20" x2="740" y1="10" y2="10" class="minor"/>
		<line x1="20" x2="740" y1="20" y2="20" class="minor"/>
		<line x1="20" x2="740" y1="30" y2="30" class="minor"/>
		<line x1="20" x2="740" y1="40" y2="40" class="minor"/>
		<line x1="20" x2="740" y1="50" y2="50" class="minor"/>
		<line x1="20" x2="740" y1="60" y2="60" class="minor"/>
		<line x1="20" x2="740" y1="70" y2="70" class="minor"/>
		<line x1="20" x2="740" y1="80" y2="80" class="minor"/>
		<line x1="20" x2="740" y1="90" y2="90" class="minor"/>
		<line x1="20" x2="740" y1="100" y2="100" class="minor"/>
		<line x1="20" x2="740" y1="110" y2="110" class="minor"/>
		<line x1="20" x2="740" y1="120" y2="120" class="minor"/>
		<line x1="20" x2="740" y1="130" y2="130" class="minor"/>
		<line x1="20" x2="740" y1="140" y2="140" class="minor"/>
		<line x1="20" x2="740" y1="150" y2="150" class="minor"/>
		<line x1="20" x2="740" y1="160" y2="160" class="minor"/>
		<line x1="20" x2="740" y1="170" y2="170" class="minor"/>
		<line x1="20" x2="740" y1="180" y2="180" class="minor"/>
		<line x1="20" x2="740" y1="190" y2="190" class="minor"/>
		<line x1="20" x2="740" y1="200" y2="200" class="minor"/>
		<line x1="20" x2="740" y1="210" y2="210" class="minor"/>
		<line x1="20" x2="740" y1="220" y2="220" class="minor"/>
		<line x1="20" x2="740" y1="230" y2="230" class="minor"/>
		<line x1="20" x2="740" y1="240" y2="240" class="minor"/>
		<line x1="20" x2="740" y1="250" y2="250" class="minor"/>
		<line x1="20" x2="740" y1="260" y2="260" class="minor"/>
		<line x1="20" x2="740" y1="270" y2="270" class="minor"/>
		<line x1="20" x2="740" y1="280" y2="280" class="minor"/>
		<line x1="20" x2="740" y1="290" y2="290" class="minor"/>
		<line x1="20" x2="740" y1="300" y2="300" class="minor"/>
		<line x1="20" x2="740" y1="310" y2="310" class="minor"/>
		<line x1="20" x2="740" y1="320" y2="320" class="minor"/>
		<line x1="20" x2="740" y1="330" y2="330" class="minor"/>
		<line x1="20" x2="740" y1="340" y2="340" class="minor"/>
		<line x1="20" x2="740" y1="350" y2="350" class="minor"/>
		<line x1="20" x2="740" y1="360" y2="360" class="minor"/>
	</g>
	<g class="notes">
		<rect x="20" y="80" width="80" height="10"/>
		<rect x="20" y="340" width="480" height="10"/>
		<rect x="20" y="270" width="480" height="10"/>
		<rect x="20" y="190" width="240" height="10"/>
		<rect x="100" y="30" width="80" height="10"/>
		<rect x="180" y="10" width="80" height="10"/>
		<rect x="260" y="170" width="480" height="10"/>
		<rect x="260" y="80" width="26.666666666666664" height="10"/>
		<rect x="286.6666666666667" y="30" width="26.666666666666664" height="10"/>
		<rect x="313.3333333333333" y="10" width="26.666666666666664" height="10"/>
		<rect x="340" y="80" width="8.88888888888889" height="10"/>
		<rect x="348.88888888888886" y="30" width="8.88888888888889" height="10"/>
		<rect x="357.77777777777777" y="10" width="8.88888888888889" height="10"/>
		<rect x="366.66666666666663" y="80" width="2.962962962962963" height="10"/>
		<rect x="369.6296296296296" y="30" width="2.962962962962963" height="10"/>
		<rect x="372.5925925925926" y="10" width="2.962962962962963" height="10"/>
		<rect x="375.55555555555554" y="80" width="0.9876543209876543" height="10"/>
		<rect x="376.54320987654324" y="30" width="0.9876543209876543" height="10"/>
		<rect x="377.5308641975309" y="10" width="0.9876543209876543" height="10"/>
		<rect x="378.51851851851853" y="80" width="0.32921810699588483" height="10"/>
		<rect x="378.84773662551436" y="30" width="0.32921810699588483" height="10"/>
		<rect x="379.1769547325103" y="10" width="0.32921810699588483" height="10"/>
		<rect x="379.50617283950623" y="80" width="0.10973936899862825" height="10"/>
		<rect x="379.6159122085048" y="30" width="0.10973936899862825" height="10"/>
		<rect x="379.72565157750347" y="10" width="0.10973936899862825" height="10"/>
		<rect x="379.83539094650206" y="80" width="0.036579789666209415" height="10"/>
		<rect x="379.87197073616824" y="30" width="0.036579789666209415" height="10"/>
		<rect x="379.90855052583447" y="10" width="0.036579789666209415" height="10"/>
		<rect x="379.9451303155007" y="80" width="0.012193263222069806" height="10"/>
		<rect x="379.95732357872276" y="30" width="0.012193263222069806" height="10"/>
		<rect x="379.9695168419448" y="10" width="0.012193263222069806" height="10"/>
		<rect x="379.98171010516694" y="80" width="0.004064421074023269" height="10"/>
		<rect x="379.9857745262409" y="30" width="0.004064421074023269" height="10"/>
		<rect x="379.989838947315" y="10" width="0.004064421074023269" height="10"/>
		<rect x="379.993903368389" y="80" width="0.0013548070246744229" height="10"/>
		<rect x="379.9952581754136" y="30" width="0.0013548070246744229" height="10"/>
		<rect x="379.9966129824383" y="10" width="0.0013548070246744229" height="10"/>
		<rect x="379.99796778946296" y="80" width="0.000451602341558141" height="10"/>
		<rect x="379.99841939180453" y="30" width="0.000451602341558141" height="10"/>
		<rect x="379.99887099414605" y="10" width="0.000451602341558141" height="10"/>
		<rect x="379.9993225964877" y="80" width="0.00015053411385271365" height="10"/>
		<rect x="379.99947313060153" y="30" width="0.00015053411385271365" height="10"/>
		<rect x="379.9996236647154" y="10" width="0.00015053411385271365" height="10"/>
		<rect x="379.99977419882924" y="80" width="0.00005017803795090455" height="10"/>
		<rect x="379.9998243768672" y="30" width="0.00005017803795090455" height="10"/>
		<rect x="379.9998745549051" y="10" width="0.00005017803795090455" height="10"/>
		<rect x="379.99992473294304" y="80" width="0.000016726012650301517" height="10"/>
		<rect x="379.99994145895573" y="30" width="0.000016726012650301517" height="10"/>
		<rect x="379.99995818496836" y="10" width="0.000016726012650301517" height="10"/>
		<rect x="379.999974910981" y="80" width="0.000005575337550100506" height="10"/>
		<rect x="379.9999804863186" y="30" width="0.000005575337550100506" height="10"/>
		<rect x="379.9999860616561" y="10" width="0.000005575337550100506" height="10"/>
		<rect x="379.9999916369936" y="80" width="0.0000018584458500335018" height="10"/>
		<rect x="379.9999934954395" y="30" width="0.0000018584458500335018" height="10"/>
		<rect x="379.9999953538854" y="10" width="0.0000018584458500335018" height="10"/>
		<rect x="379.9999972123312" y="80" width="0.0000006194819500111673" height="10"/>
		<rect x="379.9999978318132" y="30" width="0.0000006194819500111673" height="10"/>
		<rect x="379.99999845129514" y="10" width="0.0000006194819500111673" height="10"/>
		<rect x="379.9999990707771" y="80" width="0.00000020649398333705576" height="10"/>
		<rect x="379.99999927727106" y="30" width="0.00000020649398333705576" height="10"/>
		<rect x="379.99999948376507" y="10" width="0.00000020649398333705576" height="10"/>
		<rect x="379.999999690259" y="80" width="0.0000000688313277790186" height="10"/>
		<rect x="379.9999997590903" y="30" width="0.0000000688313277790186" height="10"/>
		<rect x="379.99999982792167" y="10" width="0.0000000688313277790186" height="10"/>
		<rect x="379.999999896753" y="80" width="0.00000002294377592633953" height="10"/>
		<rect x="379.9999999196968" y="30" width="0.00000002294377592633953" height="10"/>
		<rect x="379.99999994264056" y="10" width="0.00000002294377592633953" height="10"/>
		<rect x="379.9999999655844" y="80" width="0.000000007647925308779843" height="10"/>
		<rect x="379.9999999732323" y="30" width="0.000000007647925308779843" height="10"/>
		<rect x="379.9999999808802" y="10" width="0.000000007647925308779843" height="10"/>
		<rect x="379.99999998852815" y="80" width="0.0000000025493084362599478" height="10"/>
		<rect x="379.9999999910774" y="30" width="0.0000000025493084362599478" height="10"/>
		<rect x="379.9999999936267" y="10" width="0.0000000025493084362599478" height="10"/>
		<rect x="379.9999999961761" y="80" width="0.000000000849769478753316" height="10"/>
		<rect x="379.99999999702584" y="30" width="0.000000000849769478753316" height="10"/>
		<rect x="379.99999999787553" y="10" width="0.000000000849769478753316" height="10"/>
		<rect x="379.99999999872534" y="80" width="0.00000000028325649291777196" height="10"/>
		<rect x="379.9999999990086" y="30" width="0.00000000028325649291777196" height="10"/>
		<rect x="379.99999999929184" y="10" width="0.00000000028325649291777196" height="10"/>
		<rect x="379.9999999995751" y="80" width="0.00000000009441883097259066" height="10"/>
		<rect x="379.9999999996695" y="30" width="0.00000000009441883097259066" height="10"/>
		<rect x="379.999999999764" y="10" width="0.00000000009441883097259066" height="10"/>
		<rect x="379.9999999998584" y="80" width="0.00000000003147294365753022" height="10"/>
		<rect x="379.99999999988984" y="30" width="0.00000000003147294365753022" height="10"/>
		<rect x="379.99999999992133" y="10" width="0.00000000003147294365753022" height="10"/>
		<rect x="379.9999999999528" y="80" width="0.00000000001049098121917674" height="10"/>
		<rect x="379.9999999999633" y="30" width="0.00000000001049098121917674" height="10"/>
		<rect x="379.9999999999738" y="10" width="0.00000000001049098121917674" height="10"/>
		<rect x="379.9999999999843" y="80" width="0.0000000000034969937397255797" height="10"/>
		<rect x="379.9999999999878" y="30" width="0.0000000000034969937397255797" height="10"/>
		<rect x="379.99999999999125" y="10" width="0.0000000000034969937397255797" height="10"/>
		<rect x="379.99999999999477" y="80" width="0.0000000000011656645799085266" height="10"/>
		<rect x="379.99999999999596" y="30" width="0.0000000000011656645799085266" height="10"/>
		<rect x="379.9999999999971" y="10" width="0.0000000000011656645799085266" height="10"/>
		<rect x="379.99999999999824" y="80" width="0.00000000000038855485996950893" height="10"/>
		<rect x="379.99999999999864" y="30" width="0.00000000000038855485996950893" height="10"/>
		<rect x="379.999999999999" y="10" width="0.00000000000038855485996950893" height="10"/>
		<rect x="379.99999999999943" y="80" width="0.00000000000012951828665650298" height="10"/>
		<rect x="379.99999999999955" y="30" width="0.00000000000012951828665650298" height="10"/>
		<rect x="379.99999999999966" y="10" width="0.00000000000012951828665650298" height="10"/>
		<rect x="379.9999999999998" y="80" width="0.00000000000004317276221883432" height="10"/>
		<rect x="379.9999999999999" y="30" width="0.00000000000004317276221883432" height="10"/>
		<rect x="379.9999999999999" y="10" width="0.00000000000004317276221883432" height="10"/>
		<rect x="379.99999999999994" y="80" width="0.00000000000001439092073961144" height="10"/>
		<rect x="379.99999999999994" y="30" width="0.00000000000001439092073961144" height="10"/>
		<rect x="379.99999999999994" y="10" width="0.00000000000001439092073961144" height="10"/>
		<rect x="380" y="80" width="0.00000000000000479697357987048" height="10"/>
		<rect x="380" y="30" width="0.00000000000000479697357987048" height="10"/>
		<rect x="380" y="10" width="0.00000000000000479697357987048" height="10"/>
		<rect x="380" y="80" width="0.00000000000000159899119329016" height="10"/>
		<rect x="380" y="30" width="0.00000000000000159899119329016" height="10"/>
		<rect x="380" y="10" width="0.00000000000000159899119329016" height="10"/>
		<rect x="380" y="80" width="0.0000000000000005329970644300533" height="10"/>
		<rect x="380" y="30" width="0.0000000000000005329970644300533" height="10"/>
		<rect x="380" y="10" width="0.0000000000000005329970644300533" height="10"/>
		<rect x="380" y="80" width="0.00000000000000017766568814335112" height="10"/>
		<rect x="380" y="30" width="0.00000000000000017766568814335112" height="10"/>
		<rect x="380" y="10" width="0.00000000000000017766568814335112" height="10"/>
		<rect x="380" y="80" width="0.0000000000000000592218960477837" height="10"/>
		<rect x="380" y="30" width="0.0000000000000000592218960477837" height="10"/>
		<rect x="380" y="10" width="0.0000000000000000592218960477837" height="10"/>
		<rect x="380" y="80" width="0.0000000000000000197406320159279" height="10"/>
		<rect x="380" y="30" width="0.0000000000000000197406320159279" height="10"/>
		<rect x="380" y="10" width="0.0000000000000000197406320159279" height="10"/>
		<rect x="380" y="80" width="0.000000000000000006580210671975967" height="10"/>
		<rect x="380" y="30" width="0.000000000000000006580210671975967" height="10"/>
		<rect x="380" y="10" width="0.000000000000000006580210671975967" height="10"/>
		<rect x="380" y="80" width="0.0000000000000000021934035573253226" height="10"/>
		<rect x="380" y="30" width="0.0000000000000000021934035573253226" height="10"/>
		<rect x="380" y="10" width="0.0000000000000000021934035573253226" height="10"/>
		<rect x="380" y="80" width="0.0000000000000000007311345191084409" height="10"/>
		<rect x="380" y="30" width="0.0000000000000000007311345191084409" height="10"/>
		<rect x="380" y="10" width="0.0000000000000000007311345191084409" height="10"/>
		<rect x="380" y="80" width="0.00000000000000000024371150636948026" height="10"/>
		<rect x="380" y="30" width="0.00000000000000000024371150636948026" height="10"/>
		<rect x="380" y="10" width="0.00000000000000000024371150636948026" height="10"/>
		<rect x="380" y="80" width="0.00000000000000000008123716878982675" height="10"/>
		<rect x="380" y="30" width="0.00000000000000000008123716878982675" height="10"/>
		<rect x="380" y="10" width="0.00000000000000000008123716878982675" height="10"/>
		<rect x="380" y="80" width="0.000000000000000000027079056263275586" height="10"/>
		<rect x="380" y="30" width="0.000000000000000000027079056263275586" height="10"/>
		<rect x="380" y="10" width="0.000000000000000000027079056263275586" height="10"/>
		<rect x="380" y="80" width="0.000000000000000000009026352087758529" height="10"/>
		<rect x="380" y="30" width="0.000000000000000000009026352087758529" height="10"/>
		<rect x="380" y="10" width="0.000000000000000000009026352087758529" height="10"/>
		<rect x="380" y="80" width="0.000000000000000000003008784029252843" height="10"/>
		<rect x="380" y="30" width="0.000000000000000000003008784029252843" height="10"/>
		<rect x="380" y="10" width="0.000000000000000000003008784029252843" height="10"/>
		<rect x="380" y="80" width="0.0000000000000000000010029280097509477" height="10"/>
		<rect x="380" y="30" width="0.0000000000000000000010029280097509477" height="10"/>
		<rect x="380" y="10" width="0.0000000000000000000010029280097509477" height="10"/>
		<rect x="380" y="80" width="0.0000000000000000000003343093365836492" height="10"/>
		<rect x="380" y="30" width="0.0000000000000000000003343093365836492" height="10"/>
		<rect x="380" y="10" width="0.0000000000000000000003343093365836492" height="10"/>
		<rect x="380" y="80" width="0.00000000000000000000011143644552788307" height="10"/>
		<rect x="380" y="30" width="0.00000000000000000000011143644552788307" height="10"/>
		<rect x="380" y="10" width="0.00000000000000000000011143644552788307" height="10"/>
		<rect x="380" y="80" width="0.00000000000000000000003714548184262769" height="10"/>
		<rect x="380" y="30" width="0.00000000000000000000003714548184262769" height="10"/>
		<rect x="380" y="10" width="0.00000000000000000000003714548184262769" height="10"/>
		<rect x="380" y="80" width="0.000000000000000000000012381827280875896" height="10"/>
		<rect x="380" y="30" width="0.000000000000000000000012381827280875896" height="10"/>
		<rect x="380" y="10" width="0.000000000000000000000012381827280875896" height="10"/>
		<rect x="380" y="80" width="0.000000000000000000000004127275760291965" height="10"/>
		<rect x="380" y="30" width="0.000000000000000000000004127275760291965" height="10"/>
		<rect x="380" y="10" width="0.000000000000000000000004127275760291965" height="10"/>
		<rect x="380" y="80" width="0.0000000000000000000000013757585867639886" height="10"/>
		<rect x="380" y="30" width="0.0000000000000000000000013757585867639886" height="10"/>
		<rect x="380" y="10" width="0.0000000000000000000000013757585867639886" height="10"/>
		<rect x="380" y="80" width="0.0000000000000000000000004585861955879961" height="10"/>
		<rect x="380" y="30" width="0.0000000000000000000000004585861955879961" height="10"/>
		<rect x="380" y="10" width="0.0000000000000000000000004585861955879961" height="10"/>
		<rect x="380" y="80" width="0.00000000000000000000000015286206519599873" height="10"/>
		<rect x="380" y="30" width="0.00000000000000000000000015286206519599873" height="10"/>
		<rect x="380" y="10" width="0.00000000000000000000000015286206519599873" height="10"/>
		<rect x="380" y="80" width="0.000000000000000000000000050954021731999576" height="10"/>
		<rect x="380" y="30" width="0.000000000000000000000000050954021731999576" height="10"/>
		<rect x="380" y="10" width="0.000000000000000000000000050954021731999576" height="10"/>
		<rect x="380" y="80" width="0.00000000000000000000000001698467391066652" height="10"/>
		<rect x="380" y="30" width="0.00000000000000000000000001698467391066652" height="10"/>
		<rect x="380" y="10" width="0.00000000000000000000000001698467391066652" height="10"/>
		<rect x="380" y="80" width="0.000000000000000000000000005661557970222175" height="10"/>
		<rect x="380" y="30" width="0.000000000000000000000000005661557970222175" height="10"/>
		<rect x="380" y="10" width="0.000000000000000000000000005661557970222175" height="10"/>
		<rect x="380" y="80" width="0.000000000000000000000000001887185990074058" height="10"/>
		<rect x="380" y="30" width="0.000000000000000000000000001887185990074058" height="10"/>
		<rect x="380" y="10" width="0.000000000000000000000000001887185990074058" height="10"/>
		<rect x="380" y="80" width="0.0000000000000000000000000006290619966913528" height="10"/>
		<rect x="380" y="30" width="0.0000000000000000000000000006290619966913528" height="10"/>
		<rect x="380" y="10" width="0.0000000000000000000000000006290619966913528" height="10"/>
		<rect x="380" y="80" width="0.00000000000000000000000000020968733223045092" height="10"/>
		<rect x="380" y="30" width="0.00000000000000000000000000020968733223045092" height="10"/>
		<rect x="380" y="10" width="0.00000000000000000000000000020968733223045092" height="10"/>
		<rect x="380" y="80" width="0.00000000000000000000000000006989577741015031" height="10"/>
		<rect x="380" y="30" width="0.00000000000000000000000000006989577741015031" height="10"/>
		<rect x="380" y="10" width="0.00000000000000000000000000006989577741015031" height="10"/>
		<rect x="380" y="80" width="0.000000000000000000000000000023298592470050103" height="10"/>
		<rect x="380" y="30" width="0.000000000000000000000000000023298592470050103" height="10"/>
		<rect x="380" y="10" width="0.000000000000000000000000000023298592470050103" height="10"/>
		<rect x="380" y="80" width="0.0000000000000000000000000000077661974900167" height="10"/>
		<rect x="380" y="30" width="0.0000000000000000000000000000077661974900167" height="10"/>
		<rect x="380" y="10" width="0.0000000000000000000000000000077661974900167" height="10"/>
		<rect x="380" y="80" width="0.0000000000000000000000000000025887324966722337" height="10"/>
		<rect x="380" y="30" width="0.0000000000000000000000000000025887324966722337" height="10"/>
		<rect x="380" y="10" width="0.0000000000000000000000000000025887324966722337" height="10"/>
		<rect x="380" y="80" width="0.0000000000000000000000000000008629108322240778" height="10"/>
		<rect x="380" y="30" width="0.0000000000000000000000000000008629108322240778" height="10"/>
		<rect x="380" y="10" width="0.0000000000000000000000000000008629108322240778" height="10"/>
		<rect x="380" y="80" width="0.0000000000000000000000000000002876369440746926" height="10"/>
		<rect x="380" y="30" width="0.0000000000000000000000000000002876369440746926" height="10"/>
		<rect x="380" y="10" width="0.0000000000000000000000000000002876369440746926" height="10"/>
		<rect x="380" y="80" width="0.00000000000000000000000000000009587898135823087" height="10"/>
		<rect x="380" y="30" width="0.00000000000000000000000000000009587898135823087" height="10"/>
		<rect x="380" y="10" width="0.00000000000000000000000000000009587898135823087" height="10"/>
		<rect x="380" y="80" width="0.000000000000000000000000000000031959660452743624" height="10"/>
		<rect x="380" y="30" width="0.000000000000000000000000000000031959660452743624" height="10"/>
		<rect x="380" y="10" width="0.000000000000000000000000000000031959660452743624" height="10"/>
		<rect x="380" y="80" width="0.000000000000000000000000000000010653220150914541" height="10"/>
		<rect x="380" y="30" width="0.000000000000000000000000000000010653220150914541" height="10"/>
		<rect x="380" y="10" width="0.000000000000000000000000000000010653220150914541" height="10"/>
		<rect x="380" y="80" width="0.000000000000000000000000000000003551073383638181" height="10"/>
		<rect x="380" y="30" width="0.000000000000000000000000000000003551073383638181" height="10"/>
		<rect x="380" y="10" width="0.000000000000000000000000000000003551073383638181" height="10"/>
		<rect x="380" y="80" width="0.0000000000000000000000000000000011836911278793936" height="10"/>
		<rect x="380" y="30" width="0.0000000000000000000000000000000011836911278793936" height="10"/>
		<rect x="380" y="10" width="0.0000000000000000000000000000000011836911278793936" height="10"/>
		<rect x="380" y="80" width="0.0000000000000000000000000000000003945637092931312" height="10"/>
		<rect x="380" y="30" width="0.0000000000000000000000000000000003945637092931312" height="10"/>
		<rect x="380" y="10" width="0.0000000000000000000000000000000003945637092931312" height="10"/>
		<rect x="380" y="80" width="0.00000000000000000000000000000000013152123643104371" height="10"/>
		<rect x="380" y="30" width="0.00000000000000000000000000000000013152123643104371" height="10"/>
		<rect x="380" y="10" width="0.00000000000000000000000000000000013152123643104371" height="10"/>
		<rect x="380" y="80" width="0.000000000000000000000000000000000043840412143681236" height="10"/>
		<rect x="380" y="30" width="0.000000000000000000000000000000000043840412143681236" height="10"/>
		<rect x="380" y="10" width="0.000000000000000000000000000000000043840412143681236" height="10"/>
		<rect x="380" y="80" width="0.000000000000000000000000000000000014613470714560412" height="10"/>
		<rect x="380" y="30" width="0.000000000000000000000000000000000014613470714560412" height="10"/>
		<rect x="380" y="10" width="0.000000000000000000000000000000000014613470714560412" height="10"/>
		<rect x="380" y="80" width="0.0000000000000000000000000000000000048711569048534716" height="10"/>
		<rect x="380" y="30" width="0.0000000000000000000000000000000000048711569048534716" height="10"/>
		<rect x="380" y="10" width="0.0000000000000000000000000000000000048711569048534716" height="10"/>
		<rect x="380" y="80" width="0.0000000000000000000000000000000000016237189682844902" height="10"/>
		<rect x="380" y="30" width="0.0000000000000000000000000000000000016237189682844902" height="10"/>
		<rect x="380" y="10" width="0.0000000000000000000000000000000000016237189682844902" height="10"/>
		<rect x="380" y="80" width="0.0000000000000000000000000000000000005412396560948301" height="10"/>
		<rect x="380" y="30" width="0.0000000000000000000000000000000000005412396560948301" height="10"/>
		<rect x="380" y="10" width="0.0000000000000000000000000000000000005412396560948301" height="10"/>
		<rect x="380" y="80" width="0.00000000000000000000000000000000000018041321869827673" height="10"/>
		<rect x="380" y="30" width="0.00000000000000000000000000000000000018041321869827673" height="10"/>
		<rect x="380" y="10" width="0.00000000000000000000000000000000000018041321869827673" height="10"/>
		<rect x="380" y="80" width="0.00000000000000000000000000000000000006013773956609223" height="10"/>
		<rect x="380" y="30" width="0.00000000000000000000000000000000000006013773956609223" height="10"/>
		<rect x="380" y="10" width="0.00000000000000000000000000000000000006013773956609223" height="10"/>
		<rect x="380" y="80" width="0.000000000000000000000000000000000000020045913188697413" height="10"/>
		<rect x="380" y="30" width="0.000000000000000000000000000000000000020045913188697413" height="10"/>
		<rect x="380" y="10" width="0.000000000000000000000000000000000000020045913188697413" height="10"/>
		<rect x="380" y="80" width="0.000000000000000000000000000000000000006681971062899138" height="10"/>
		<rect x="380" y="30" width="0.000000000000000000000000000000000000006681971062899138" height="10"/>
		<rect x="380" y="10" width="0.000000000000000000000000000000000000006681971062899138" height="10"/>
		<rect x="380" y="80" width="0.0000000000000000000000000000000000000022273236876330457" height="10"/>
		<rect x="380" y="30" width="0.0000000000000000000000000000000000000022273236876330457" height="10"/>
		<rect x="380" y="10" width="0.0000000000000000000000000000000000000022273236876330457" height="10"/>
		<rect x="380" y="80" width="0.0000000000000000000000000000000000000007424412292110153" height="10"/>
		<rect x="380" y="30" width="0.0000000000000000000000000000000000000007424412292110153" height="10"/>
		<rect x="380" y="10" width="0.0000000000000000000000000000000000000007424412292110153" height="10"/>
		<rect x="380" y="80" width="0.0000000000000000000000000000000000000002474804097370051" height="10"/>
		<rect x="380" y="30" width="0.0000000000000000000000000000000000000002474804097370051" height="10"/>
		<rect x="380" y="10" width="0.0000000000000000000000000000000000000002474804097370051" height="10"/>
		<rect x="380" y="80" width="0.00000000000000000000000000000000000000008249346991233503" height="10"/>
		<rect x="380" y="30" width="0.00000000000000000000000000000000000000008249346991233503" height="10"/>
		<rect x="380" y="10" width="0.00000000000000000000000000000000000000008249346991233503" height="10"/>
		<rect x="380" y="80" width="0.000000000000000000000000000000000000000027497823304111676" height="10"/>
		<rect x="380" y="30" width="0.000000000000000000000000000000000000000027497823304111676" height="10"/>
		<rect x="380" y="10" width="0.000000000000000000000000000000000000000027497823304111676" height="10"/>
		<rect x="380" y="80" width="0.000000000000000000000000000000000000000009165941101370559" height="10"/>
		<rect x="380" y="30" width="0.000000000000000000000000000000000000000009165941101370559" height="10"/>
		<rect x="380" y="10" width="0.000000000000000000000000000000000000000009165941101370559" height="10"/>
		<rect x="380" y="80" width="0.000000000000000000000000000000000000000003055313700456853" height="10"/>
		<rect x="380" y="30" width="0.000000000000000000000000000000000000000003055313700456853" height="10"/>
		<rect x="380" y="10" width="0.000000000000000000000000000000000000000003055313700456853" height="10"/>
		<rect x="380" y="80" width="0.0000000000000000000000000000000000000000010184379001522843" height="10"/>
		<rect x="380" y="30" width="0.0000000000000000000000000000000000000000010184379001522843" height="10"/>
		<rect x="380" y="10" width="0.0000000000000000000000000000000000000000010184379001522843" height="10"/>
		<rect x="380" y="80" width="0.00000000000000000000000000000000000000000033947930005076143" height="10"/>
		<rect x="380" y="30" width="0.00000000000000000000000000000000000000000033947930005076143" height="10"/>
		<rect x="380" y="10" width="0.00000000000000000000000000000000000000000033947930005076143" height="10"/>
		<rect x="380" y="80" width="0.00000000000000000000000000000000000000000011315976668358714" height="10"/>
		<rect x="380" y="30" width="0.00000000000000000000000000000000000000000011315976668358714" height="10"/>
		<rect x="380" y="10" width="0.00000000000000000000000000000000000000000011315976668358714" height="10"/>
		<rect x="380" y="80" width="0.00000000000000000000000000000000000000000003771992222786238" height="10"/>
		<rect x="380" y="30" width="0.00000000000000000000000000000000000000000003771992222786238" height="10"/>
		<rect x="380" y="10" width="0.00000000000000000000000000000000000000000003771992222786238" height="10"/>
		<rect x="380" y="80" width="0.00000000000000000000000000000000000000000001257330740928746" height="10"/>
		<rect x="380" y="30" width="0.00000000000000000000000000000000000000000001257330740928746" height="10"/>
		<rect x="380" y="10" width="0.00000000000000000000000000000000000000000001257330740928746" height="10"/>
		<rect x="380" y="80" width="0.000000000000000000000000000000000000000000004191102469762487" height="10"/>
		<rect x="380" y="30" width="0.000000000000000000000000000000000000000000004191102469762487" height="10"/>
		<rect x="380" y="10" width="0.000000000000000000000000000000000000000000004191102469762487" height="10"/>
		<rect x="380" y="80" width="0.0000000000000000000000000000000000000000000013970341565874955" height="10"/>
		<rect x="380" y="30" width="0.0000000000000000000000000000000000000000000013970341565874955" height="10"/>
		<rect x="380" y="10" width="0.0000000000000000000000000000000000000000000013970341565874955" height="10"/>
		<rect x="380" y="0" width="0.0000000000000000000000000000000000000000000013970341565874955" height="10"/>
		<rect x="380" y="10" width="0.0000000000000000000000000000000000000000000013970341565874955" height="10"/>
		<rect x="380" y="100" width="0.0000000000000000000000000000000000000000000013970341565874955" height="10"/>
		<rect x="380" y="0" width="0.000000000000000000000000000000000000000000004191102469762487" height="10"/>
		<rect x="380" y="10" width="0.000000000000000000000000000000000000000000004191102469762487" height="10"/>
		<rect x="380" y="100" width="0.000000000000000000000000000000000000000000004191102469762487" height="10"/>
		<rect x="380" y="0" width="0.00000000000000000000000000000000000000000001257330740928746" height="10"/>
		<rect x="380" y="10" width="0.00000000000000000000000000000000000000000001257330740928746" height="10"/>
		<rect x="380" y="100" width="0.00000000000000000000000000000000000000000001257330740928746" height="10"/>
		<rect x="380" y="0" width="0.00000000000000000000000000000000000000000003771992222786238" height="10"/>
		<rect x="380" y="10" width="0.00000000000000000000000000000000000000000003771992222786238" height="10"/>
		<rect x="380" y="100" width="0.00000000000000000000000000000000000000000003771992222786238" height="10"/>
		<rect x="380" y="0" width="0.00000000000000000000000000000000000000000011315976668358714" height="10"/>
		<rect x="380" y="10" width="0.00000000000000000000000000000000000000000011315976668358714" height="10"/>
		<rect x="380" y="100" width="0.00000000000000000000000000000000000000000011315976668358714" height="10"/>
		<rect x="380" y="0" width="0.00000000000000000000000000000000000000000033947930005076143" height="10"/>
		<rect x="380" y="10" width="0.00000000000000000000000000000000000000000033947930005076143" height="10"/>
		<rect x="380" y="100" width="0.00000000000000000000000000000000000000000033947930005076143" height="10"/>
		<rect x="380" y="0" width="0.0000000000000000000000000000000000000000010184379001522843" height="10"/>
		<rect x="380" y="10" width="0.0000000000000000000000000000000000000000010184379001522843" height="10"/>
		<rect x="380" y="100" width="0.0000000000000000000000000000000000000000010184379001522843" height="10"/>
		<rect x="380" y="0" width="0.000000000000000000000000000000000000000003055313700456853" height="10"/>
		<rect x="380" y="10" width="0.000000000000000000000000000000000000000003055313700456853" height="10"/>
		<rect x="380" y="100" width="0.000000000000000000000000000000000000000003055313700456853" height="10"/>
		<rect x="380" y="0" width="0.000000000000000000000000000000000000000009165941101370559" height="10"/>
		<rect x="380" y="10" width="0.000000000000000000000000000000000000000009165941101370559" height="10"/>
		<rect x="380" y="100" width="0.000000000000000000000000000000000000000009165941101370559" height="10"/>
		<rect x="380" y="0" width="0.000000000000000000000000000000000000000027497823304111676" height="10"/>
		<rect x="380" y="10" width="0.000000000000000000000000000000000000000027497823304111676" height="10"/>
		<rect x="380" y="100" width="0.000000000000000000000000000000000000000027497823304111676" height="10"/>
		<rect x="380" y="0" width="0.00000000000000000000000000000000000000008249346991233503" height="10"/>
		<rect x="380" y="10" width="0.00000000000000000000000000000000000000008249346991233503" height="10"/>
		<rect x="380" y="100" width="0.00000000000000000000000000000000000000008249346991233503" height="10"/>
		<rect x="380" y="0" width="0.0000000000000000000000000000000000000002474804097370051" height="10"/>
		<rect x="380" y="10" width="0.0000000000000000000000000000000000000002474804097370051" height="10"/>
		<rect x="380" y="100" width="0.0000000000000000000000000000000000000002474804097370051" height="10"/>
		<rect x="380" y="0" width="0.0000000000000000000000000000000000000007424412292110153" height="10"/>
		<rect x="380" y="10" width="0.0000000000000000000000000000000000000007424412292110153" height="10"/>
		<rect x="380" y="100" width="0.0000000000000000000000000000000000000007424412292110153" height="10"/>
		<rect x="380" y="0" width="0.0000000000000000000000000000000000000022273236876330457" height="10"/>
		<rect x="380" y="10" width="0.0000000000000000000000000000000000000022273236876330457" height="10"/>
		<rect x="380" y="100" width="0.0000000000000000000000000000000000000022273236876330457" height="10"/>
		<rect x="380" y="0" width="0.000000000000000000000000000000000000006681971062899138" height="10"/>
		<rect x="380" y="10" width="0.000000000000000000000000000000000000006681971062899138" height="10"/>
		<rect x="380" y="100" width="0.000000000000000000000000000000000000006681971062899138" height="10"/>
		<rect x="380" y="0" width="0.000000000000000000000000000000000000020045913188697413" height="10"/>
		<rect x="380" y="10" width="0.000000000000000000000000000000000000020045913188697413" height="10"/>
		<rect x="380" y="100" width="0.000000000000000000000000000000000000020045913188697413" height="10"/>
		<rect x="380" y="0" width="0.00000000000000000000000000000000000006013773956609223" height="10"/>
		<rect x="380" y="10" width="0.00000000000000000000000000000000000006013773956609223" height="10"/>
		<rect x="380" y="100" width="0.00000000000000000000000000000000000006013773956609223" height="10"/>
		<rect x="380" y="0" width="0.00000000000000000000000000000000000018041321869827673" height="10"/>
		<rect x="380" y="10" width="0.00000000000000000000000000000000000018041321869827673" height="10"/>
		<rect x="380" y="100" width="0.00000000000000000000000000000000000018041321869827673" height="10"/>
		<rect x="380" y="0" width="0.0000000000000000000000000000000000005412396560948301" height="10"/>
		<rect x="380" y="10" width="0.0000000000000000000000000000000000005412396560948301" height="10"/>
		<rect x="380" y="100" width="0.0000000000000000000000000000000000005412396560948301" height="10"/>
		<rect x="380" y="0" width="0.0000000000000000000000000000000000016237189682844902" height="10"/>
		<rect x="380" y="10" width="0.0000000000000000000000000000000000016237189682844902" height="10"/>
		<rect x="380" y="100" width="0.0000000000000000000000000000000000016237189682844902" height="10"/>
		<rect x="380" y="0" width="0.0000000000000000000000000000000000048711569048534716" height="10"/>
		<rect x="380" y="10" width="0.0000000000000000000000000000000000048711569048534716" height="10"/>
		<rect x="380" y="100" width="0.0000000000000000000000000000000000048711569048534716" height="10"/>
		<rect x="380" y="0" width="0.000000000000000000000000000000000014613470714560412" height="10"/>
		<rect x="380" y="10" width="0.000000000000000000000000000000000014613470714560412" height="10"/>
		<rect x="380" y="100" width="0.000000000000000000000000000000000014613470714560412" height="10"/>
		<rect x="380" y="0" width="0.000000000000000000000000000000000043840412143681236" height="10"/>
		<rect x="380" y="10" width="0.000000000000000000000000000000000043840412143681236" height="10"/>
		<rect x="380" y="100" width="0.000000000000000000000000000000000043840412143681236" height="10"/>
		<rect x="380" y="0" width="0.00000000000000000000000000000000013152123643104371" height="10"/>
		<rect x="380" y="10" width="0.00000000000000000000000000000000013152123643104371" height="10"/>
		<rect x="380" y="100" width="0.00000000000000000000000000000000013152123643104371" height="10"/>
		<rect x="380" y="0" width="0.0000000000000000000000000000000003945637092931312" height="10"/>
		<rect x="380" y="10" width="0.0000000000000000000000000000000003945637092931312" height="10"/>
		<rect x="380" y="100" width="0.0000000000000000000000000000000003945637092931312" height="10"/>
		<rect x="380" y="0" width="0.0000000000000000000000000000000011836911278793936" height="10"/>
		<rect x="380" y="10" width="0.0000000000000000000000000000000011836911278793936" height="10"/>
		<rect x="380" y="100" width="0.0000000000000000000000000000000011836911278793936" height="10"/>
		<rect x="380" y="0" width="0.000000000000000000000000000000003551073383638181" height="10"/>
		<rect x="380" y="10" width="0.000000000000000000000000000000003551073383638181" height="10"/>
		<rect x="380" y="100" width="0.000000000000000000000000000000003551073383638181" height="10"/>
		<rect x="380" y="0" width="0.000000000000000000000000000000010653220150914541" height="10"/>
		<rect x="380" y="10" width="0.000000000000000000000000000000010653220150914541" height="10"/>
		<rect x="380" y="100" width="0.000000000000000000000000000000010653220150914541" height="10"/>
		<rect x="380" y="0" width="0.000000000000000000000000000000031959660452743624" height="10"/>
		<rect x="380" y="10" width="0.000000000000000000000000000000031959660452743624" height="10"/>
		<rect x="380" y="100" width="0.000000000000000000000000000000031959660452743624" height="10"/>
		<rect x="380" y="0" width="0.00000000000000000000000000000009587898135823087" height="10"/>
		<rect x="380" y="10" width="0.00000000000000000000000000000009587898135823087" height="10"/>
		<rect x="380" y="100" width="0.00000000000000000000000000000009587898135823087" height="10"/>
		<rect x="380" y="0" width="0.0000000000000000000000000000002876369440746926" height="10"/>
		<rect x="380" y="10" width="0.0000000000000000000000000000002876369440746926" height="10"/>
		<rect x="380" y="100" width="0.0000000000000000000000000000002876369440746926" height="10"/>
		<rect x="380" y="0" width="0.0000000000000000000000000000008629108322240778" height="10"/>
		<rect x="380" y="10" width="0.0000000000000000000000000000008629108322240778" height="10"/>
		<rect x="380" y="100" width="0.0000000000000000000000000000008629108322240778" height="10"/>
		<rect x="380" y="0" width="0.0000000000000000000000000000025887324966722337" height="10"/>
		<rect x="380" y="10" width="0.0000000000000000000000000000025887324966722337" height="10"/>
		<rect x="380" y="100" width="0.0000000000000000000000000000025887324966722337" height="10"/>
		<rect x="380" y="0" width="0.0000000000000000000000000000077661974900167" height="10"/>
		<rect x="380" y="10" width="0.0000000000000000000000000000077661974900167" height="10"/>
		<rect x="380" y="100" width="0.0000000000000000000000000000077661974900167" height="10"/>
		<rect x="380" y="0" width="0.000000000000000000000000000023298592470050103" height="10"/>
		<rect x="380" y="10" width="0.000000000000000000000000000023298592470050103" height="10"/>
		<rect x="380" y="100" width="0.000000000000000000000000000023298592470050103" height="10"/>
		<rect x="380" y="0" width="0.00000000000000000000000000006989577741015031" height="10"/>
		<rect x="380" y="10" width="0.00000000000000000000000000006989577741015031" height="10"/>
		<rect x="380" y="100" width="0.00000000000000000000000000006989577741015031" height="10"/>
		<rect x="380" y="0" width="0.00000000000000000000000000020968733223045092" height="10"/>
		<rect x="380" y="10" width="0.00000000000000000000000000020968733223045092" height="10"/>
		<rect x="380" y="100" width="0.00000000000000000000000000020968733223045092" height="10"/>
		<rect x="380" y="0" width="0.0000000000000000000000000006290619966913528" height="10"/>
		<rect x="380" y="10" width="0.0000000000000000000000000006290619966913528" height="10"/>
		<rect x="380" y="100" width="0.0000000000000000000000000006290619966913528" height="10"/>
		<rect x="380" y="0" width="0.000000000000000000000000001887185990074058" height="10"/>
		<rect x="380" y="10" width="0.000000000000000000000000001887185990074058" height="10"/>
		<rect x="380" y="100" width="0.000000000000000000000000001887185990074058" height="10"/>
		<rect x="380" y="0" width="0.000000000000000000000000005661557970222175" height="10"/>
		<rect x="380" y="10" width="0.000000000000000000000000005661557970222175" height="10"/>
		<rect x="380" y="100" width="0.000000000000000000000000005661557970222175" height="10"/>
		<rect x="380" y="0" width="0.00000000000000000000000001698467391066652" height="10"/>
		<rect x="380" y="10" width="0.00000000000000000000000001698467391066652" height="10"/>
		<rect x="380" y="100" width="0.00000000000000000000000001698467391066652" height="10"/>
		<rect x="380" y="0" width="0.000000000000000000000000050954021731999576" height="10"/>
		<rect x="380" y="10" width="0.000000000000000000000000050954021731999576" height="10"/>
		<rect x="380" y="100" width="0.000000000000000000000000050954021731999576" height="10"/>
		<rect x="380" y="0" width="0.00000000000000000000000015286206519599873" height="10"/>
		<rect x="380" y="10" width="0.00000000000000000000000015286206519599873" height="10"/>
		<rect x="380" y="100" width="0.00000000000000000000000015286206519599873" height="10"/>
		<rect x="380" y="0" width="0.0000000000000000000000004585861955879961" height="10"/>
		<rect x="380" y="10" width="0.0000000000000000000000004585861955879961" height="10"/>
		<rect x="380" y="100" width="0.0000000000000000000000004585861955879961" height="10"/>
		<rect x="380" y="0" width="0.0000000000000000000000013757585867639886" height="10"/>
		<rect x="380" y="10" width="0.0000000000000000000000013757585867639886" height="10"/>
		<rect x="380" y="100" width="0.0000000000000000000000013757585867639886" height="10"/>
		<rect x="380" y="0" width="0.000000000000000000000004127275760291965" height="10"/>
		<rect x="380" y="10" width="0.000000000000000000000004127275760291965" height="10"/>
		<rect x="380" y="100" width="0.000000000000000000000004127275760291965" height="10"/>
		<rect x="380" y="0" width="0.000000000000000000000012381827280875896" height="10"/>
		<rect x="380" y="10" width="0.000000000000000000000012381827280875896" height="10"/>
		<rect x="380" y="100" width="0.000000000000000000000012381827280875896" height="10"/>
		<rect x="380" y="0" width="0.00000000000000000000003714548184262769" height="10"/>
		<rect x="380" y="10" width="0.00000000000000000000003714548184262769" height="10"/>
		<rect x="380" y="100" width="0.00000000000000000000003714548184262769" height="10"/>
		<rect x="380" y="0" width="0.00000000000000000000011143644552788307" height="10"/>
		<rect x="380" y="10" width="0.00000000000000000000011143644552788307" height="10"/>
		<rect x="380" y="100" width="0.00000000000000000000011143644552788307" height="10"/>
		<rect x="380" y="0" width="0.0000000000000000000003343093365836492" height="10"/>
		<rect x="380" y="10" width="0.0000000000000000000003343093365836492" height="10"/>
		<rect x="380" y="100" width="0.0000000000000000000003343093365836492" height="10"/>
		<rect x="380" y="0" width="0.0000000000000000000010029280097509477" height="10"/>
		<rect x="380" y="10" width="0.0000000000000000000010029280097509477" height="10"/>
		<rect x="380" y="100" width="0.0000000000000000000010029280097509477" height="10"/>
		<rect x="380" y="0" width="0.000000000000000000003008784029252843" height="10"/>
		<rect x="380" y="10" width="0.000000000000000000003008784029252843" height="10"/>
		<rect x="380" y="100" width="0.000000000000000000003008784029252843" height="10"/>
		<rect x="380" y="0" width="0.000000000000000000009026352087758529" height="10"/>
		<rect x="380" y="10" width="0.000000000000000000009026352087758529" height="10"/>
		<rect x="380" y="100" width="0.000000000000000000009026352087758529" height="10"/>
		<rect x="380" y="0" width="0.000000000000000000027079056263275586" height="10"/>
		<rect x="380" y="10" width="0.000000000000000000027079056263275586" height="10"/>
		<rect x="380" y="100" width="0.000000000000000000027079056263275586" height="10"/>
		<rect x="380" y="0" width="0.00000000000000000008123716878982675" height="10"/>
		<rect x="380" y="10" width="0.00000000000000000008123716878982675" height="10"/>
		<rect x="380" y="100" width="0.00000000000000000008123716878982675" height="10"/>
		<rect x="380" y="0" width="0.00000000000000000024371150636948026" height="10"/>
		<rect x="380" y="10" width="0.00000000000000000024371150636948026" height="10"/>
		<rect x="380" y="100" width="0.00000000000000000024371150636948026" height="10"/>
		<rect x="380" y="0" width="0.0000000000000000007311345191084409" height="10"/>
		<rect x="380" y="10" width="0.0000000000000000007311345191084409" height="10"/>
		<rect x="380" y="100" width="0.0000000000000000007311345191084409" height="10"/>
		<rect x="380" y="0" width="0.0000000000000000021934035573253226" height="10"/>
		<rect x="380" y="10" width="0.0000000000000000021934035573253226" height="10"/>
		<rect x="380" y="100" width="0.0000000000000000021934035573253226" height="10"/>
		<rect x="380" y="0" width="0.000000000000000006580210671975967" height="10"/>
		<rect x="380" y="10" width="0.000000000000000006580210671975967" height="10"/>
		<rect x="380" y="100" width="0.000000000000000006580210671975967" height="10"/>
		<rect x="380" y="0" width="0.0000000000000000197406320159279" height="10"/>
		<rect x="380" y="10" width="0.0000000000000000197406320159279" height="10"/>
		<rect x="380" y="100" width="0.0000000000000000197406320159279" height="10"/>
		<rect x="380" y="0" width="0.0000000000000000592218960477837" height="10"/>
		<rect x="380" y="10" width="0.0000000000000000592218960477837" height="10"/>
		<rect x="380" y="100" width="0.0000000000000000592218960477837" height="10"/>
		<rect x="380" y="0" width="0.00000000000000017766568814335112" height="10"/>
		<rect x="380" y="10" width="0.00000000000000017766568814335112" height="10"/>
		<rect x="380" y="100" width="0.00000000000000017766568814335112" height="10"/>
		<rect x="380" y="0" width="0.0000000000000005329970644300533" height="10"/>
		<rect x="380" y="10" width="0.0000000000000005329970644300533" height="10"/>
		<rect x="380" y="100" width="0.0000000000000005329970644300533" height="10"/>
		<rect x="380" y="0" width="0.00000000000000159899119329016" height="10"/>
		<rect x="380" y="10" width="0.00000000000000159899119329016" height="10"/>
		<rect x="380" y="100" width="0.00000000000000159899119329016" height="10"/>
		<rect x="380" y="0" width="0.00000000000000479697357987048" height="10"/>
		<rect x="380" y="10" width="0.00000000000000479697357987048" height="10"/>
		<rect x="380" y="100" width="0.00000000000000479697357987048" height="10"/>
		<rect x="380" y="0" width="0.00000000000001439092073961144" height="10"/>
		<rect x="380.00000000000006" y="10" width="0.00000000000001439092073961144" height="10"/>
		<rect x="380.00000000000006" y="100" width="0.00000000000001439092073961144" height="10"/>
		<rect x="380.00000000000006" y="0" width="0.00000000000004317276221883432" height="10"/>
		<rect x="380.0000000000001" y="10" width="0.00000000000004317276221883432" height="10"/>
		<rect x="380.0000000000001" y="100" width="0.00000000000004317276221883432" height="10"/>
		<rect x="380.0000000000002" y="0" width="0.00000000000012951828665650298" height="10"/>
		<rect x="380.00000000000034" y="10" width="0.00000000000012951828665650298" height="10"/>
		<rect x="380.00000000000045" y="100" width="0.00000000000012951828665650298" height="10"/>
		<rect x="380.00000000000057" y="0" width="0.00000000000038855485996950893" height="10"/>
		<rect x="380.000000000001" y="10" width="0.00000000000038855485996950893" height="10"/>
		<rect x="380.00000000000136" y="100" width="0.00000000000038855485996950893" height="10"/>
		<rect x="380.00000000000176" y="0" width="0.0000000000011656645799085266" height="10"/>
		<rect x="380.0000000000029" y="10" width="0.0000000000011656645799085266" height="10"/>
		<rect x="380.00000000000404" y="100" width="0.0000000000011656645799085266" height="10"/>
		<rect x="380.00000000000523" y="0" width="0.0000000000034969937397255797" height="10"/>
		<rect x="380.00000000000875" y="10" width="0.0000000000034969937397255797" height="10"/>
		<rect x="380.0000000000122" y="100" width="0.0000000000034969937397255797" height="10"/>
		<rect x="380.0000000000157" y="0" width="0.00000000001049098121917674" height="10"/>
		<rect x="380.0000000000262" y="10" width="0.00000000001049098121917674" height="10"/>
		<rect x="380.0000000000367" y="100" width="0.00000000001049098121917674" height="10"/>
		<rect x="380.0000000000472" y="0" width="0.00000000003147294365753022" height="10"/>
		<rect x="380.00000000007867" y="10" width="0.00000000003147294365753022" height="10"/>
		<rect x="380.00000000011016" y="100" width="0.00000000003147294365753022" height="10"/>
		<rect x="380.0000000001416" y="0" width="0.00000000009441883097259066" height="10"/>
		<rect x="380.000000000236" y="10" width="0.00000000009441883097259066" height="10"/>
		<rect x="380.0000000003305" y="100" width="0.00000000009441883097259066" height="10"/>
		<rect x="380.0000000004249" y="0" width="0.00000000028325649291777196" height="10"/>
		<rect x="380.00000000070816" y="10" width="0.00000000028325649291777196" height="10"/>
		<rect x="380.0000000009914" y="100" width="0.00000000028325649291777196" height="10"/>
		<rect x="380.00000000127466" y="0" width="0.000000000849769478753316" height="10"/>
		<rect x="380.00000000212447" y="10" width="0.000000000849769478753316" height="10"/>
		<rect x="380.00000000297416" y="100" width="0.000000000849769478753316" height="10"/>
		<rect x="380.0000000038239" y="0" width="0.0000000025493084362599478" height="10"/>
		<rect x="380.0000000063733" y="10" width="0.0000000025493084362599478" height="10"/>
		<rect x="380.0000000089226" y="100" width="0.0000000025493084362599478" height="10"/>
		<rect x="380.00000001147185" y="0" width="0.000000007647925308779843" height="10"/>
		<rect x="380.0000000191198" y="10" width="0.000000007647925308779843" height="10"/>
		<rect x="380.0000000267677" y="100" width="0.000000007647925308779843" height="10"/>
		<rect x="380.0000000344156" y="0" width="0.00000002294377592633953" height="10"/>
		<rect x="380.00000005735944" y="10" width="0.00000002294377592633953" height="10"/>
		<rect x="380.0000000803032" y="100" width="0.00000002294377592633953" height="10"/>
		<rect x="380.000000103247" y="0" width="0.0000000688313277790186" height="10"/>
		<rect x="380.00000017207833" y="10" width="0.0000000688313277790186" height="10"/>
		<rect x="380.0000002409097" y="100" width="0.0000000688313277790186" height="10"/>
		<rect x="380.000000309741" y="0" width="0.00000020649398333705576" height="10"/>
		<rect x="380.00000051623493" y="10" width="0.00000020649398333705576" height="10"/>
		<rect x="380.00000072272894" y="100" width="0.00000020649398333705576" height="10"/>
		<rect x="380.0000009292229" y="0" width="0.0000006194819500111673" height="10"/>
		<rect x="380.00000154870486" y="10" width="0.0000006194819500111673" height="10"/>
		<rect x="380.0000021681868" y="100" width="0.0000006194819500111673" height="10"/>
		<rect x="380.0000027876688" y="0" width="0.0000018584458500335018" height="10"/>
		<rect x="380.0000046461146" y="10" width="0.0000018584458500335018" height="10"/>
		<rect x="380.0000065045605" y="100" width="0.0000018584458500335018" height="10"/>
		<rect x="380.0000083630064" y="0" width="0.000005575337550100506" height="10"/>
		<rect x="380.0000139383439" y="10" width="0.000005575337550100506" height="10"/>
		<rect x="380.0000195136814" y="100" width="0.000005575337550100506" height="10"/>
		<rect x="380.000025089019" y="0" width="0.000016726012650301517" height="10"/>
		<rect x="380.00004181503164" y="10" width="0.000016726012650301517" height="10"/>
		<rect x="380.00005854104427" y="100" width="0.000016726012650301517" height="10"/>
		<rect x="380.00007526705696" y="0" width="0.00005017803795090455" height="10"/>
		<rect x="380.0001254450949" y="10" width="0.00005017803795090455" height="10"/>
		<rect x="380.0001756231328" y="100" width="0.00005017803795090455" height="10"/>
		<rect x="380.00022580117076" y="0" width="0.00015053411385271365" height="10"/>
		<rect x="380.0003763352846" y="10" width="0.00015053411385271365" height="10"/>
		<rect x="380.00052686939847" y="100" width="0.00015053411385271365" height="10"/>
		<rect x="380.0006774035123" y="0" width="0.000451602341558141" height="10"/>
		<rect x="380.00112900585395" y="10" width="0.000451602341558141" height="10"/>
		<rect x="380.00158060819547" y="100" width="0.000451602341558141" height="10"/>
		<rect x="380.00203221053704" y="0" width="0.0013548070246744229" height="10"/>
		<rect x="380.0033870175617" y="10" width="0.0013548070246744229" height="10"/>
		<rect x="380.0047418245864" y="100" width="0.0013548070246744229" height="10"/>
		<rect x="380.006096631611" y="0" width="0.004064421074023269" height="10"/>
		<rect x="380.010161052685" y="10" width="0.004064421074023269" height="10"/>
		<rect x="380.0142254737591" y="100" width="0.004064421074023269" height="10"/>
		<rect x="380.01828989483306" y="0" width="0.012193263222069806" height="10"/>
		<rect x="380.0304831580552" y="10" width="0.012193263222069806" height="10"/>
		<rect x="380.04267642127724" y="100" width="0.012193263222069806" height="10"/>
		<rect x="380.0548696844993" y="0" width="0.036579789666209415" height="10"/>
		<rect x="380.09144947416553" y="10" width="0.036579789666209415" height="10"/>
		<rect x="380.12802926383176" y="100" width="0.036579789666209415" height="10"/>
		<rect x="380.16460905349794" y="0" width="0.10973936899862825" height="10"/>
		<rect x="380.27434842249653" y="10" width="0.10973936899862825" height="10"/>
		<rect x="380.3840877914952" y="100" width="0.10973936899862825" height="10"/>
		<rect x="380.49382716049377" y="0" width="0.32921810699588483" height="10"/>
		<rect x="380.8230452674897" y="10" width="0.32921810699588483" height="10"/>
		<rect x="381.15226337448564" y="100" width="0.32921810699588483" height="10"/>
		<rect x="381.48148148148147" y="0" width="0.9876543209876543" height="10"/>
		<rect x="382.4691358024691" y="10" width="0.9876543209876543" height="10"/>
		<rect x="383.45679012345676" y="100" width="0.9876543209876543" height="10"/>
		<rect x="384.44444444444446" y="0" width="2.962962962962963" height="10"/>
		<rect x="387.4074074074074" y="10" width="2.962962962962963" height="10"/>
		<rect x="390.3703703703704" y="100" width="2.962962962962963" height="10"/>
		<rect x="393.33333333333337" y="0" width="8.88888888888889" height="10"/>
		<rect x="402.22222222222223" y="10" width="8.88888888888889" height="10"/>
		<rect x="411.11111111111114" y="100" width="8.88888888888889" height="10"/>
		<rect x="420" y="0" width="26.666666666666664" height="10"/>
		<rect x="446.66666666666663" y="10" width="26.666666666666664" height="10"/>
		<rect x="473.33333333333337" y="100" width="26.666666666666664" height="10"/>
		<rect x="500" y="0" width="80" height="10"/>
		<rect x="500" y="320" width="240" height="10"/>
		<rect x="500" y="360" width="240" height="10"/>
		<rect x="580" y="10" width="80" height="10"/>
		<rect x="660" y="100" width="80" height="10"/>
	</g>
</svg>
